<svg width="20" height="20" viewBox="0 0 20 20" fill="none" xmlns="http://www.w3.org/2000/svg">
<rect width="20" height="20" fill="#E5E5E5"/>
<g clip-path="url(#clip0_1_836)">
<rect width="1600" height="2930" transform="translate(-636 -2802)" fill="white"/>
<rect x="-636" y="-123" width="1600" height="251" fill="#2F303A"/>
<path d="M32 10C32 16.0751 29.5376 21.5751 25.5564 25.5564C21.5751 29.5376 16.0751 32 10 32C3.92487 32 -1.57513 29.5376 -5.55635 25.5564C-9.53757 21.5751 -12 16.0751 -12 10C-12 3.92487 -9.53757 -1.57513 -5.55635 -5.55635C-1.57513 -9.53757 3.92487 -12 10 -12C16.0751 -12 21.5751 -9.53757 25.5564 -5.55635C29.5376 -1.57513 32 3.92487 32 10Z" fill="white" fill-opacity="0.1"/>
<g clip-path="url(#clip1_1_836)">
<path d="M13.3309 3.32083H15.1567V0.140833C14.8417 0.0975 13.7584 0 12.4967 0C9.86422 0 8.06088 1.65583 8.06088 4.69917V7.5H5.15588V11.055H8.06088V20H11.6226V11.0558H14.4101L14.8526 7.50083H11.6217V5.05167C11.6226 4.02417 11.8992 3.32083 13.3309 3.32083Z" fill="white"/>
</g>
</g>
<defs>
<clipPath id="clip0_1_836">
<rect width="1600" height="2930" fill="white" transform="translate(-636 -2802)"/>
</clipPath>
<clipPath id="clip1_1_836">
<rect width="20" height="20" fill="white"/>
</clipPath>
</defs>
</svg>
