<svg width="20" height="20" viewBox="0 0 20 20" fill="none" xmlns="http://www.w3.org/2000/svg">
<rect width="20" height="20" fill="#E5E5E5"/>
<g clip-path="url(#clip0_1_836)">
<rect width="1600" height="2930" transform="translate(-690 -2802)" fill="white"/>
<rect x="-690" y="-123" width="1600" height="251" fill="#2F303A"/>
<path d="M32 10C32 16.0751 29.5376 21.5751 25.5564 25.5564C21.5751 29.5376 16.0751 32 10 32C3.92487 32 -1.57513 29.5376 -5.55635 25.5564C-9.53757 21.5751 -12 16.0751 -12 10C-12 3.92487 -9.53757 -1.57513 -5.55635 -5.55635C-1.57513 -9.53757 3.92487 -12 10 -12C16.0751 -12 21.5751 -9.53757 25.5564 -5.55635C29.5376 -1.57513 32 3.92487 32 10Z" fill="white" fill-opacity="0.1"/>
<g clip-path="url(#clip1_1_836)">
<path d="M19.9951 20.0001V19.9993H20.0001V12.6643C20.0001 9.07593 19.2276 6.31177 15.0326 6.31177C13.0159 6.31177 11.6626 7.41843 11.1101 8.4676H11.0517V6.64677H7.07422V19.9993H11.2159V13.3876C11.2159 11.6468 11.5459 9.96343 13.7017 9.96343C15.8259 9.96343 15.8576 11.9501 15.8576 13.4993V20.0001H19.9951Z" fill="white"/>
<path d="M0.329956 6.64746H4.47662V20H0.329956V6.64746Z" fill="white"/>
<path d="M2.40167 0C1.07583 0 0 1.07583 0 2.40167C0 3.7275 1.07583 4.82583 2.40167 4.82583C3.7275 4.82583 4.80333 3.7275 4.80333 2.40167C4.8025 1.07583 3.72667 0 2.40167 0V0Z" fill="white"/>
</g>
</g>
<defs>
<clipPath id="clip0_1_836">
<rect width="1600" height="2930" fill="white" transform="translate(-690 -2802)"/>
</clipPath>
<clipPath id="clip1_1_836">
<rect width="20" height="20" fill="white"/>
</clipPath>
</defs>
</svg>
